<svg xmlns="http://www.w3.org/2000/svg" viewBox="0 0 973 1147" width="400" height="472">
  <g transform="scale(0.1,-0.1) translate(0,-11470)" fill-rule="evenodd">
    <path fill="#1B3A6B" d="M3810 10850 c10 -7 -1 -8 -34 -3 -34 4 -47 3 -43 -4 5 -7 -6 -10 -30
-8 -21 1 -29 0 -18 -2 11 -3 -24 -16 -85 -32 -58 -15 -139 -42 -180 -60 -41
-18 -81 -35 -89 -38 -9 -4 -12 -2 -7 5 5 9 1 9 -16 3 -13 -5 -22 -14 -21 -20
2 -6 -15 -20 -37 -31 -22 -11 -40 -16 -40 -10 0 7 -6 8 -17 1 -22 -12 -63 -45
-44 -35 10 5 12 3 7 -5 -5 -7 -14 -10 -22 -7 -7 3 -16 0 -20 -6 -5 -7 -2 -8 7
-4 8 4 5 1 -5 -8 -10 -8 -22 -13 -27 -11 -4 3 -11 0 -15 -6 -5 -8 -3 -9 6 -4
9 5 11 4 6 -3 -4 -7 -17 -17 -29 -24 -21 -11 -21 -10 -7 8 14 18 14 18 -2 5
-10 -7 -18 -20 -18 -27 0 -8 -5 -14 -11 -14 -5 0 -7 6 -3 13 5 8 2 8 -9 -2
-18 -15 -23 -26 -7 -16 17 11 11 -7 -7 -21 -26 -19 -38 -17 -22 4 13 15 12 16
-3 4 -10 -8 -14 -20 -11 -29 5 -12 2 -15 -10 -10 -10 4 -16 2 -14 -5 1 -6 -4
-13 -12 -16 -9 -3 -11 0 -6 8 5 8 4 11 -3 6 -6 -4 -8 -14 -5 -23 5 -13 2 -15
-11 -10 -9 4 -15 3 -11 -2 6 -11 -223 -237 -236 -234 -5 2 -8 -2 -6 -9 1 -7
-3 -12 -10 -13 -6 0 -15 -4 -20 -9 -5 -5 -3 -6 5 -2 6 4 12 2 12 -3 0 -6 -10
-11 -22 -12 -13 0 -17 -3 -10 -6 10 -4 9 -9 -4 -24 -9 -10 -20 -16 -24 -14 -4
3 -14 -3 -21 -13 -13 -15 -12 -16 4 -3 9 7 17 9 17 3 0 -14 -26 -33 -34 -24
-4 4 -7 3 -6 -3 4 -20 0 -35 -11 -35 -5 0 -7 6 -3 13 5 8 2 8 -9 -2 -18 -15
-23 -26 -7 -16 18 11 10 -10 -17 -40 l-26 -30 17 30 17 30 -20 -24 c-12 -12
-19 -27 -16 -32 7 -10 -26 -50 -36 -43 -4 2 -18 -10 -30 -28 -13 -17 -18 -28
-11 -24 7 4 12 2 12 -3 0 -6 -6 -11 -14 -11 -8 0 -18 -5 -22 -12 -4 -7 -3 -8
4 -4 19 11 14 -8 -7 -30 -10 -11 -24 -30 -30 -42 -7 -13 -16 -20 -21 -17 -5 3
-12 0 -16 -6 -4 -8 -3 -9 4 -5 20 12 13 -13 -8 -34 -11 -11 -20 -23 -20 -27 0
-5 -4 -8 -9 -8 -5 0 -13 -4 -18 -9 -5 -5 -3 -6 5 -2 7 5 12 1 12 -9 0 -11 -5
-15 -15 -12 -8 4 -17 1 -21 -5 -4 -7 -3 -8 4 -4 7 4 12 1 12 -8 0 -8 -4 -18
-10 -21 -5 -3 -10 -1 -10 5 0 6 -5 8 -11 4 -8 -5 -8 -9 1 -14 12 -7 -3 -39
-56 -120 -29 -44 -41 -53 -24 -17 10 20 9 19 -9 -3 -11 -14 -16 -26 -11 -28 5
-2 6 -10 3 -18 -3 -7 -9 -12 -13 -9 -5 3 -12 0 -16 -6 -4 -8 -3 -9 4 -5 7 4
12 2 12 -4 0 -7 -9 -14 -20 -17 -11 -3 -20 -10 -20 -15 0 -5 5 -6 11 -2 7 4
10 2 8 -5 -3 -7 -8 -12 -13 -11 -15 3 -44 -51 -38 -73 3 -13 1 -18 -6 -13 -6
3 -13 2 -17 -4 -3 -5 -1 -10 4 -10 6 0 11 -4 11 -10 0 -5 -7 -10 -15 -10 -19
0 -33 -28 -28 -54 3 -15 2 -17 -5 -8 -7 10 -12 6 -21 -17 -7 -16 -11 -33 -8
-38 8 -13 -9 -48 -23 -48 -7 0 -15 -6 -17 -12 -3 -7 0 -13 6 -13 6 0 8 -7 4
-16 -4 -11 -8 -12 -13 -4 -5 8 -9 7 -13 -4 -4 -9 -2 -16 3 -16 5 0 7 -7 4 -15
-4 -8 -10 -13 -14 -10 -4 3 -11 -2 -14 -11 -4 -9 -2 -12 5 -8 7 4 10 -1 7 -12
-2 -11 -10 -19 -17 -19 -8 0 -16 -6 -19 -14 -3 -8 0 -11 7 -7 22 14 10 -15
-16 -41 -16 -15 -22 -23 -15 -19 16 9 15 -8 -2 -47 -8 -18 -17 -40 -20 -50 -3
-10 -10 -16 -15 -12 -5 3 -12 1 -16 -5 -3 -5 -1 -10 5 -10 6 0 10 -8 8 -17 -2
-10 -10 -18 -17 -18 -8 0 -16 -6 -19 -14 -3 -9 0 -11 8 -6 8 5 11 1 8 -11 -2
-11 -8 -19 -15 -19 -6 0 -15 -3 -19 -7 -4 -5 -2 -8 4 -8 7 0 12 -7 12 -15 0
-8 -6 -15 -14 -15 -9 0 -12 -9 -9 -27 3 -20 2 -24 -5 -15 -7 11 -10 10 -15 -5
-4 -10 -13 -36 -21 -58 -18 -46 -20 -56 -6 -35 7 11 10 11 10 2 0 -7 -9 -22
-20 -34 -19 -21 -25 -47 -21 -98 1 -20 -1 -22 -9 -10 -8 13 -10 12 -11 -5 -1
-11 -1 -28 -1 -38 1 -10 -7 -30 -18 -44 -11 -14 -20 -31 -20 -37 0 -6 5 -4 10
4 8 12 10 11 10 -6 0 -12 -6 -24 -13 -27 -9 -3 -13 -17 -10 -39 2 -26 1 -29
-6 -13 -9 19 -10 18 -12 -5 -1 -14 -1 -40 0 -58 2 -24 -4 -40 -18 -53 -21 -20
-29 -45 -11 -34 19 12 10 -32 -10 -50 -11 -10 -20 -28 -19 -39 0 -21 1 -21 10
-1 7 16 8 14 4 -9 -3 -15 -13 -35 -20 -43 -8 -8 -15 -24 -15 -36 0 -18 2 -19
10 -7 8 12 10 12 9 -5 0 -23 -17 -65 -19 -50 -4 31 -17 -38 -14 -75 3 -35 2
-40 -5 -20 l-9 25 -2 -25 c-1 -14 -4 -41 -5 -60 -1 -19 -7 -57 -14 -83 -7 -29
-9 -74 -5 -112 7 -68 -2 -159 -15 -150 -12 7 -21 -111 -21 -282 0 -112 3 -152
13 -156 9 -3 12 -35 12 -115 0 -62 3 -112 7 -112 4 0 4 -16 1 -37 -5 -28 -3
-34 7 -28 10 6 11 -3 7 -41 -4 -36 -4 -42 3 -24 7 19 8 14 4 -22 -3 -25 -1
-49 5 -52 5 -3 7 -16 4 -29 -3 -16 -2 -18 5 -8 7 9 9 1 8 -27 0 -27 6 -47 18
-61 11 -12 14 -21 8 -21 -7 0 -12 -5 -12 -11 0 -5 5 -7 12 -3 6 4 8 3 5 -3 -9
-15 3 -74 14 -67 5 3 6 -1 3 -9 -3 -8 -1 -18 5 -21 6 -4 8 -13 4 -21 -3 -8 0
-15 7 -15 6 0 9 -4 6 -8 -7 -12 15 -82 25 -77 4 3 5 -4 2 -15 -3 -12 0 -20 6
-20 7 0 10 -4 7 -9 -9 -13 17 -71 32 -71 7 0 12 -8 10 -17 -2 -10 4 -25 14
-35 10 -10 14 -25 11 -38 -4 -14 -1 -20 7 -18 7 2 15 -3 18 -11 3 -9 0 -11 -8
-6 -9 6 -9 3 0 -14 6 -12 16 -18 22 -15 7 5 9 0 5 -16 -4 -16 1 -29 19 -45 13
-12 24 -32 24 -44 0 -11 4 -21 10 -21 5 0 9 -3 9 -7 -3 -19 2 -31 23 -53 12
-13 23 -30 25 -38 1 -8 8 -19 15 -23 7 -5 9 -9 5 -9 -4 0 -3 -9 3 -20 6 -11
15 -18 20 -15 6 3 7 -1 4 -9 -4 -9 1 -18 10 -22 9 -3 16 -12 16 -20 0 -8 5
-14 10 -14 6 0 10 -7 10 -16 0 -8 5 -12 10 -9 6 3 10 -3 10 -13 0 -20 23 -46
32 -36 3 2 8 -2 12 -11 4 -11 2 -14 -6 -9 -7 4 -8 3 -4 -4 4 -7 13 -12 19 -12
13 0 43 -40 39 -52 -1 -5 5 -8 13 -8 8 0 15 -5 15 -11 0 -5 -5 -7 -12 -3 -7 4
-8 3 -4 -5 4 -6 11 -9 16 -6 4 3 13 -2 20 -10 7 -8 9 -15 6 -15 -15 0 16 -40
42 -53 15 -7 26 -19 25 -25 -2 -7 4 -12 12 -12 15 0 38 -34 29 -43 -3 -3 2 -4
12 -3 9 0 19 -6 21 -14 4 -13 3 -13 -6 0 -6 8 -11 10 -11 4 0 -16 45 -55 55
-47 4 5 5 3 2 -3 -4 -6 3 -20 15 -30 12 -11 18 -13 13 -5 -5 10 -4 12 3 7 7
-4 12 -14 12 -23 0 -9 3 -13 7 -10 3 4 13 -2 20 -13 8 -11 19 -17 25 -14 6 4
8 2 5 -3 -4 -6 1 -17 10 -24 14 -12 16 -12 8 0 -5 10 -4 12 3 7 7 -4 12 -14
12 -23 0 -9 3 -14 6 -10 3 3 19 -9 36 -26 16 -18 27 -25 23 -17 -4 8 4 2 19
-15 14 -16 25 -26 26 -22 0 4 9 3 20 -3 11 -6 18 -15 15 -20 -3 -5 9 -18 27
-30 31 -21 32 -21 9 -1 -13 12 -19 21 -15 21 15 -1 44 -26 44 -39 0 -6 6 -10
13 -8 6 1 11 -3 10 -10 -2 -7 4 -10 13 -6 9 3 14 0 12 -8 -2 -7 4 -14 12 -14
24 -2 50 -16 45 -25 -3 -4 3 -14 12 -21 12 -10 14 -10 9 -1 -4 6 -3 12 2 12 5
0 12 -9 15 -20 4 -14 14 -20 34 -20 15 0 37 -7 47 -15 11 -8 15 -15 9 -15 -7
0 -15 5 -18 10 -3 6 -12 10 -18 10 -7 0 1 -9 17 -19 16 -11 36 -17 44 -13 10
3 13 1 8 -6 -8 -13 39 -37 63 -33 7 1 10 -2 6 -8 -6 -11 7 -15 34 -12 7 2 10
-2 6 -8 -3 -7 2 -11 14 -11 28 0 52 -11 45 -21 -5 -8 9 -13 29 -10 4 0 7 -3 7
-8 0 -5 7 -12 16 -15 10 -4 13 -2 8 6 -5 8 -2 9 10 5 10 -4 20 -7 22 -7 3 0 2
-5 -1 -10 -3 -6 6 -15 22 -20 15 -6 37 -15 48 -21 12 -5 27 -11 35 -12 8 -2
24 -8 34 -14 10 -6 28 -8 39 -5 13 3 18 1 13 -6 -8 -13 16 -21 64 -21 45 0
191 -47 164 -53 -15 -3 -14 -5 8 -10 17 -3 25 -1 21 5 -4 6 0 8 11 4 10 -4 25
-7 34 -7 15 0 15 -2 2 -11 -11 -8 -7 -9 16 -4 39 7 86 -3 77 -18 -4 -6 2 -8
15 -5 12 3 23 1 25 -5 2 -8 57 -12 178 -11 137 0 154 -1 79 -6 l-95 -6 85 -2
c107 -2 192 7 183 21 -4 6 5 8 25 4 21 -4 34 -1 43 9 7 8 19 12 27 9 7 -3 19
-2 25 2 7 4 17 8 22 9 6 0 16 2 23 2 7 1 11 6 8 10 -3 5 11 16 30 25 40 20 48
21 39 7 -3 -6 1 -7 9 -4 9 3 13 10 10 16 -3 5 2 16 12 23 22 17 48 20 39 5 -4
-6 1 -7 11 -3 11 4 13 8 6 11 -16 5 -5 22 14 22 9 0 12 -5 8 -12 -4 -8 -3 -10
2 -5 5 5 9 12 9 17 0 15 85 71 97 64 6 -4 8 -3 5 3 -4 6 4 18 18 27 29 19 39
20 29 4 -4 -7 -3 -8 5 -4 6 4 9 11 7 15 -3 4 6 18 19 29 28 25 40 28 29 10 -4
-8 -3 -10 2 -5 5 5 9 13 9 18 0 5 3 9 7 9 4 0 40 33 80 73 60 60 63 62 18 12
-45 -49 -40 -45 28 20 45 44 82 82 82 84 0 2 -12 -6 -26 -20 -38 -34 -26 -9
19 40 21 23 42 39 47 36 5 -3 12 0 16 6 4 8 3 9 -4 5 -7 -4 -12 -3 -12 2 0 12
35 43 42 37 3 -3 13 5 24 17 l19 23 -22 -19 c-26 -21 -30 -11 -8 18 7 10 18
15 24 12 5 -4 13 -1 17 5 4 8 3 9 -4 5 -7 -4 -12 -2 -12 3 0 6 6 11 14 11 8 0
18 5 22 12 4 7 3 8 -4 4 -7 -4 -12 -2 -12 3 0 6 4 11 8 11 5 0 15 11 22 25 7
14 19 25 26 25 16 0 48 50 47 72 -1 10 4 17 10 15 7 -1 11 7 9 18 -2 11 -1 17
4 13 8 -9 22 8 58 77 15 28 20 41 12 31 -20 -24 -20 -10 -1 24 7 14 19 25 26
25 7 0 14 7 16 15 4 13 3 13 -6 0 -6 -8 -11 -10 -11 -4 0 18 79 181 80 164 0
-9 6 -5 15 10 16 28 20 54 5 30 -14 -21 -12 -10 6 44 12 36 19 45 26 35 7 -10
8 -8 5 8 -3 12 0 24 7 27 8 3 8 5 -1 5 -13 1 22 102 39 112 6 4 7 17 3 30 -4
16 -3 20 3 11 7 -10 11 -6 15 16 3 16 9 43 12 58 5 22 4 25 -4 14 -9 -13 -11
-13 -11 3 0 9 7 17 15 17 8 0 15 5 15 11 0 5 -4 7 -10 4 -5 -3 -10 0 -10 8 0
8 7 17 15 21 8 3 15 16 14 28 -1 22 -1 22 -9 -2 l-8 -25 -1 24 c-1 18 -5 22
-18 16 -78 -31 -162 -55 -181 -50 -14 3 -29 0 -38 -10 -17 -17 -39 -21 -29 -5
3 6 -1 10 -9 10 -9 0 -16 -3 -16 -7 0 -5 -15 -8 -32 -9 -150 -3 -208 -9 -212
-21 -3 -7 -10 -13 -16 -13 -6 0 -8 5 -5 10 3 6 -1 10 -10 10 -9 0 -13 -5 -10
-11 5 -7 -3 -9 -21 -7 -17 2 -28 8 -27 16 4 15 -84 17 -89 2 -1 -5 -14 -6 -28
-3 l-25 7 25 8 c15 5 0 6 -40 3 -38 -2 -55 -1 -40 4 22 6 19 8 -22 14 -26 4
-55 4 -64 0 -13 -5 -15 -3 -9 7 6 10 4 12 -8 7 -10 -4 -17 -1 -17 6 0 9 -2 9
-8 -1 -6 -9 -15 -10 -33 -3 -14 6 -18 10 -9 11 8 1 -1 7 -20 14 -19 7 -40 11
-46 9 -11 -4 -84 24 -84 33 0 3 5 2 12 -2 7 -4 8 -3 4 5 -4 6 -12 9 -17 5 -6
-3 -17 2 -25 12 -9 11 -12 13 -8 5 4 -9 2 -12 -7 -9 -8 3 -13 10 -12 16 2 6
-4 9 -11 6 -8 -3 -19 4 -26 16 -6 12 -14 19 -17 16 -3 -3 -12 2 -20 12 -8 9
-12 11 -8 5 18 -36 -50 14 -71 52 -6 11 -15 20 -20 20 -17 1 -54 26 -54 37 0
6 6 6 18 -3 9 -7 4 1 -12 19 -16 17 -32 29 -36 27 -12 -7 -33 23 -25 35 4 6 1
9 -7 8 -7 -2 -14 7 -16 20 -2 12 -8 20 -13 16 -6 -3 -9 1 -7 9 2 9 -1 17 -7
18 -11 2 -34 30 -35 42 0 5 4 5 10 2 6 -3 7 1 4 9 -3 9 -10 13 -15 10 -9 -5
-10 -4 -14 31 -1 12 -8 45 -16 74 -10 39 -15 48 -20 34 -9 -21 -11 -8 -16 92
-10 216 -4 323 16 310 5 -3 12 2 15 11 9 23 8 26 -6 18 -8 -5 -9 -2 -5 10 4
10 7 24 7 32 0 8 7 14 15 14 8 0 12 6 9 14 -3 7 2 16 11 20 10 3 14 13 11 23
-6 18 6 45 18 44 17 -2 20 0 9 7 -8 5 -6 14 8 32 l20 25 -11 -25 -11 -25 20
25 c11 14 16 27 10 31 -6 3 -3 12 7 20 16 12 17 12 9 -1 -8 -13 -7 -13 8 -1
19 15 23 26 6 15 -7 -4 -10 -1 -7 7 3 8 11 13 17 12 6 -2 11 6 11 17 0 11 5
20 11 20 5 0 7 -6 3 -12 -4 -7 7 0 24 16 17 16 29 32 27 37 -3 4 14 23 37 43
41 35 66 47 52 24 -4 -7 -3 -8 5 -4 6 4 9 11 6 16 -7 12 38 41 56 37 8 -2 11
-2 6 0 -11 7 2 23 19 23 10 0 12 -5 8 -12 -5 -8 -1 -8 12 2 30 22 30 24 9 17
-20 -7 -20 -7 -1 8 11 8 28 12 39 9 12 -4 17 -2 13 4 -3 6 8 15 24 21 18 6 28
6 25 1 -3 -6 1 -7 9 -4 8 3 17 12 20 20 3 9 16 15 28 14 13 -1 34 -2 48 -1 19
1 22 3 11 10 -11 7 -5 11 22 16 19 4 40 4 46 1 5 -3 22 -1 38 5 15 6 46 11 68
11 37 0 38 0 10 7 -29 7 -29 7 13 12 23 2 42 1 42 -3 0 -5 12 -8 28 -7 l27 1
-25 8 c-19 6 -9 8 37 9 96 2 93 -2 93 116 0 85 -3 104 -16 109 -9 3 -320 7
-692 8 l-677 3 695 5 695 5 -697 3 -698 2 0 210 0 210 698 0 c454 0 692 4 682
10 -11 7 -11 10 -2 10 10 0 13 27 11 115 l-1 115 -62 2 c-33 0 -74 0 -90 -1
-34 -3 -76 6 -75 17 3 18 -2 26 -9 14 -5 -7 -16 -10 -25 -6 -9 3 -14 10 -11
15 5 9 -7 12 -41 10 -17 -2 -17 0 -5 8 12 8 7 11 -20 12 -19 1 -27 3 -17 6 15
4 12 8 -15 23 -18 9 -39 15 -45 13 -8 -3 -13 4 -13 18 0 19 -2 21 -10 9 -8
-13 -10 -12 -10 3 0 10 -4 16 -9 13 -5 -3 -15 2 -22 11 -12 14 -12 16 0 8 9
-5 12 -4 7 3 -4 6 -14 8 -23 5 -12 -5 -15 -2 -10 9 6 16 -25 53 -35 42 -9 -8
-48 52 -48 75 0 11 -9 25 -20 31 -11 6 -20 15 -20 21 0 6 4 8 10 4 5 -3 3 7
-5 22 -8 15 -15 35 -15 43 0 13 -1 13 -10 0 -8 -12 -10 -11 -8 5 1 11 -2 42
-6 69 -6 34 -11 44 -18 35 -7 -10 -8 -8 -3 7 3 12 1 52 -5 90 -8 46 -8 70 0
78 5 5 10 19 10 30 0 17 -2 18 -10 6 -8 -12 -10 -10 -10 10 0 14 5 32 10 40 8
12 10 10 11 -10 1 -18 3 -14 9 13 4 21 5 50 3 65 -4 21 -2 24 6 12 9 -12 11
-11 12 10 1 14 1 34 0 45 -2 17 0 17 8 5 9 -13 11 -12 12 5 1 11 0 28 -1 39
-1 10 3 16 8 12 5 -3 14 6 21 20 16 35 13 44 -5 14 -14 -24 -15 -24 -8 -2 3
13 15 44 26 69 15 35 22 42 30 32 7 -10 8 -8 3 8 -4 13 2 37 14 60 11 21 20
31 21 23 0 -12 2 -13 9 -1 5 7 6 23 4 35 -4 17 -3 18 6 6 10 -13 11 -13 12 0
1 8 1 21 0 27 -1 7 5 25 14 40 9 16 13 19 10 8 -16 -47 -15 -48 3 -16 11 19
17 44 15 55 -4 17 -3 18 6 6 10 -13 11 -13 12 0 1 8 1 21 0 29 -2 7 2 10 7 7
6 -3 12 1 16 9 3 8 0 15 -6 15 -6 0 -8 3 -4 8 4 4 13 7 19 7 7 0 12 7 12 15 0
8 7 21 15 28 10 9 11 11 1 6 -9 -4 -12 -2 -9 7 3 8 11 13 18 11 6 -1 10 3 7
10 -6 17 21 70 33 63 5 -3 12 0 16 6 4 8 3 9 -4 5 -18 -11 -15 3 9 40 11 19
25 32 29 29 5 -3 12 0 16 6 4 8 3 9 -4 5 -18 -11 -14 6 8 34 11 14 20 31 20
38 0 6 6 12 14 12 8 0 18 5 22 12 4 7 3 8 -4 4 -7 -4 -12 -1 -12 9 0 10 5 13
12 9 6 -4 9 -3 7 2 -3 5 -11 21 -18 36 -8 15 -17 25 -21 23 -5 -3 -11 2 -14
11 -4 9 -2 13 5 8 8 -4 7 0 0 15 -7 11 -14 21 -17 21 -3 0 -2 -5 2 -12 4 -7 3
-8 -4 -4 -6 4 -9 13 -6 21 4 9 -2 18 -12 22 -20 7 -34 22 -34 36 0 5 5 5 12 1
7 -4 8 -3 4 5 -4 6 -11 9 -16 6 -11 -7 -51 50 -48 67 2 7 -2 12 -9 11 -12 -3
-58 54 -58 72 -1 6 -6 9 -13 7 -7 -1 -11 1 -11 5 4 23 -3 33 -21 33 -11 0 -20
7 -20 15 0 9 -10 19 -23 24 -13 5 -29 17 -37 27 -13 17 -12 16 10 -1 l25 -20
-19 22 c-10 12 -21 21 -25 21 -12 -3 -51 13 -51 21 0 5 -13 14 -30 21 -16 7
-30 17 -30 22 0 6 11 3 25 -6 13 -9 28 -16 32 -16 4 0 -5 9 -21 19 -16 11 -35
17 -42 14 -19 -7 -40 7 -24 17 8 5 7 9 -5 13 -9 4 -13 3 -10 -3 9 -14 -6 -12
-35 6 -18 11 -19 14 -5 9 16 -5 17 -4 8 6 -7 7 -29 12 -50 11 -27 0 -33 2 -18
7 17 7 17 8 -7 13 -15 3 -25 1 -22 -3 3 -5 1 -9 -5 -9 -5 0 -14 7 -19 17 -6 9
-16 14 -25 10 -9 -3 -17 -1 -19 5 -2 6 -31 11 -65 12 -33 0 -56 4 -49 8 6 4
-27 8 -74 8 -59 0 -80 -3 -70 -10z"/>
    <path fill="#1B3A6B" d="M2742 10287 c-45 -45 -82 -86 -82 -90 0 -5 6 -2 13 6 6 7 46 48 87
90 41 42 72 77 70 77 -3 0 -42 -37 -88 -83z"/>
    <path fill="#1B3A6B" d="M4965 7019 c44 -5 32 -6 -48 -4 -59 2 -105 0 -102 -4 2 -5 -12 -6
-31 -4 -21 2 -33 0 -30 -6 6 -9 -23 -23 -40 -20 -5 1 -20 1 -34 0 -18 -1 -21
-4 -12 -10 11 -7 10 -10 -3 -15 -23 -8 -27 -8 -20 4 3 6 -1 7 -9 4 -9 -3 -14
-11 -13 -17 1 -7 -6 -11 -15 -11 -10 1 -16 -2 -13 -6 6 -10 -73 -62 -85 -55
-5 3 -12 0 -16 -6 -4 -8 -3 -9 4 -5 20 12 13 -4 -14 -32 -15 -15 -23 -21 -19
-13 5 9 4 12 -3 7 -6 -4 -9 -13 -6 -21 3 -7 -3 -19 -14 -26 -12 -7 -18 -19
-14 -27 3 -10 1 -13 -6 -8 -13 8 -17 -9 -13 -54 1 -19 -1 -21 -8 -11 -6 10
-11 -6 -16 -51 -8 -71 10 -183 26 -172 6 3 10 0 8 -7 -3 -26 1 -40 10 -35 11
7 23 -22 15 -35 -3 -5 0 -8 7 -7 6 2 14 -3 17 -11 3 -9 0 -11 -9 -6 -12 7 -12
5 -1 -6 7 -8 18 -14 25 -14 7 -1 11 -7 9 -14 -1 -7 2 -10 7 -7 10 6 34 -18 26
-26 -3 -3 2 -11 12 -19 11 -9 14 -10 9 -1 -4 6 -2 12 3 12 6 0 11 -6 11 -14 0
-8 5 -18 12 -22 7 -5 8 -3 3 6 -5 8 -3 11 6 8 8 -3 13 -11 11 -17 -1 -7 2 -10
7 -7 12 8 42 -4 36 -14 -7 -12 92 -43 106 -34 8 5 9 3 4 -6 -6 -10 -1 -12 18
-8 16 3 24 1 20 -5 -3 -6 15 -7 48 -3 38 4 47 3 29 -4 -19 -6 -7 -8 45 -7 39
1 75 -1 80 -4 27 -16 311 33 300 51 -6 9 25 23 33 15 3 -3 -1 -5 -8 -5 -7 0
-11 -2 -8 -5 8 -8 38 6 33 16 -3 4 3 13 14 18 25 14 34 14 26 1 -3 -6 1 -7 10
-3 12 4 13 8 5 13 -17 10 6 24 23 14 6 -4 9 -3 4 1 -8 9 30 55 46 55 6 0 0
-12 -14 -27 l-24 -28 24 20 c29 25 70 82 50 70 -7 -4 -2 3 13 18 19 17 26 32
21 43 -4 11 -2 15 4 11 13 -8 34 61 40 133 6 67 -12 166 -33 174 -7 3 -14 17
-14 31 0 14 -4 25 -10 25 -6 0 -9 5 -8 12 2 7 -3 12 -11 13 -8 0 -16 6 -19 14
-3 9 0 11 9 6 8 -4 -1 8 -20 28 -18 19 -39 33 -46 31 -6 -3 -18 3 -26 12 -12
16 -12 17 1 9 12 -6 13 -5 3 5 -11 12 -21 15 -66 19 -5 1 -6 5 -3 10 7 11 -22
23 -36 14 -6 -3 -8 -1 -4 5 3 6 -2 13 -11 15 -10 3 -29 9 -42 12 -15 5 -21 3
-17 -3 4 -6 -2 -8 -15 -5 -15 4 -17 8 -8 14 7 4 -7 6 -32 3 -33 -3 -39 -2 -24
5 14 7 1 8 -45 5 -46 -2 -58 -1 -40 5 18 6 -1 9 -65 8 -87 0 -88 -1 -30 -8z"/>
    <path fill="#1B3A6B" d="M2747 3223 c-4 -3 -7 -444 -7 -980 l0 -973 179 0 c154 0 180 2 185
16 3 9 6 190 6 404 0 214 3 396 6 405 6 13 9 14 16 3 7 -9 8 -7 5 10 -3 12 -2
22 2 22 4 0 12 16 18 35 7 23 8 33 1 29 -6 -4 -5 3 1 15 7 11 16 21 22 21 6 0
7 5 4 10 -3 6 -1 10 5 10 6 0 8 5 4 12 -4 6 -3 8 3 5 5 -4 23 8 39 26 l29 32
-30 -25 -30 -24 25 27 c14 15 36 29 49 32 13 2 26 7 30 11 3 4 -3 4 -13 0 -16
-5 -17 -4 -6 9 15 18 44 20 35 3 -4 -7 2 -3 12 8 20 24 71 45 58 24 -6 -9 -3
-10 9 -3 9 5 49 6 93 2 42 -4 82 -5 87 -2 6 4 8 3 4 -2 -4 -4 12 -17 35 -28
23 -12 48 -29 55 -39 7 -10 18 -15 24 -12 6 4 8 2 5 -3 -4 -6 5 -22 19 -36 14
-14 23 -31 19 -37 -3 -5 -1 -10 5 -10 7 0 9 -7 6 -16 -4 -9 -2 -13 5 -8 8 4 9
-1 4 -16 -5 -15 -3 -20 3 -16 23 14 25 -43 19 -466 -2 -153 -1 -278 2 -278 3
0 5 -25 5 -56 -3 -101 -17 -94 192 -94 l184 0 0 397 c0 221 -5 428 -11 467
-27 187 -41 241 -79 317 -12 22 -18 45 -14 52 4 7 4 9 -1 5 -9 -9 -35 9 -35
24 0 5 6 6 13 2 7 -4 9 -3 4 2 -5 5 -14 9 -20 9 -7 0 -12 7 -12 15 -1 8 -6 14
-12 13 -6 -1 -19 8 -29 20 -19 21 -19 21 1 7 20 -15 20 -14 1 8 -20 23 -32 30
-20 11 4 -7 1 -10 -7 -7 -8 3 -14 10 -14 15 0 6 -4 15 -9 20 -5 5 -6 3 -2 -4
11 -19 -3 -15 -64 17 -30 16 -48 30 -40 30 10 1 9 4 -5 10 -28 12 -43 12 -25
-1 11 -8 8 -9 -15 -4 -16 4 -57 13 -90 20 -39 8 -53 14 -40 17 11 3 -9 6 -45
7 -48 0 -61 -2 -50 -10 11 -7 0 -9 -40 -5 -41 4 -50 3 -35 -4 16 -8 11 -9 -20
-5 -22 2 -34 2 -26 -2 16 -7 -129 -65 -146 -58 -7 2 -12 1 -10 -4 3 -9 -106
-99 -125 -102 -37 -5 -38 -2 -36 139 l2 137 6 -130 c4 -91 6 -28 8 205 1 219
-2 330 -8 320 -6 -10 -10 -11 -10 -2 0 9 -42 12 -178 12 -98 0 -182 -3 -185
-7z m370 -300 c-2 -38 -3 -7 -3 67 0 74 1 105 3 68 2 -38 2 -98 0 -135z"/>
    <path fill="#1B3A6B" d="M7665 2735 c-5 -2 -36 -6 -68 -10 -35 -4 -55 -10 -51 -17 4 -6 -1 -8
-15 -3 -12 4 -21 2 -21 -4 0 -6 -6 -8 -14 -5 -7 3 -16 -2 -19 -10 -4 -9 -12
-16 -19 -16 -9 0 -8 3 2 10 23 15 2 12 -29 -5 -16 -8 -31 -22 -35 -31 -3 -9
-13 -14 -21 -10 -8 3 -17 0 -21 -6 -5 -7 -2 -8 7 -4 8 4 5 1 -5 -8 -10 -8 -22
-13 -26 -11 -4 2 -20 -10 -36 -28 l-29 -32 35 30 35 30 -30 -32 c-52 -55 -59
-49 -56 50 l3 87 -189 -2 c-137 -1 -168 -3 -113 -8 l75 -6 -75 -3 c-41 -2 -78
-3 -82 -2 -5 0 -8 -442 -8 -984 l0 -985 181 0 c143 0 183 3 195 14 19 19 21
545 2 564 -9 9 -9 12 0 12 7 0 12 5 12 11 0 5 -4 7 -10 4 -15 -9 -12 54 3 69
13 13 49 18 42 5 -3 -3 4 -9 15 -12 11 -3 19 -11 18 -18 -2 -7 6 -13 17 -14
11 0 20 -5 20 -12 0 -6 4 -15 9 -20 5 -5 6 -3 2 5 -10 17 -6 16 63 -18 33 -17
83 -36 112 -42 40 -9 47 -14 33 -20 -11 -5 0 -6 26 -2 28 3 40 2 32 -4 -17
-12 158 -14 213 -2 22 4 31 8 20 9 -11 1 12 12 50 25 102 33 201 88 274 154
36 31 67 56 70 54 3 -1 6 5 7 14 2 9 8 22 15 28 9 8 10 8 4 -3 -5 -9 -4 -12 3
-7 6 4 8 14 5 23 -5 12 -3 14 7 8 8 -5 11 -4 6 3 -6 10 37 106 45 98 2 -2 5 8
6 22 0 15 10 59 21 99 11 40 23 109 26 155 4 46 9 106 11 133 4 38 3 45 -5 30
-8 -15 -9 -8 -6 30 4 36 2 45 -5 30 -7 -15 -8 -10 -4 20 3 30 2 36 -6 25 -8
-11 -9 -6 -5 20 4 25 3 31 -4 20 -8 -12 -10 -8 -8 15 2 41 -10 75 -28 75 -13
0 -18 14 -17 47 1 7 -3 11 -7 8 -5 -3 -23 19 -42 47 -42 67 -46 76 -22 58 18
-14 18 -14 5 2 -7 10 -17 16 -21 13 -11 -7 -51 40 -43 50 5 4 3 5 -3 2 -6 -4
-20 3 -30 16 -19 21 -19 21 1 7 18 -14 19 -14 6 2 -7 10 -17 15 -23 12 -11 -7
-40 15 -33 26 3 4 -3 7 -13 6 -9 0 -16 4 -15 11 2 8 -4 10 -14 6 -12 -5 -14
-3 -8 7 5 8 4 11 -3 7 -15 -10 -43 3 -35 16 4 6 1 7 -6 2 -7 -4 -31 0 -54 8
-23 8 -55 18 -72 22 -27 7 -28 8 -10 16 14 7 8 8 -20 4 -31 -4 -36 -3 -25 5
12 9 8 10 -17 5 -18 -4 -34 -2 -38 4 -6 10 -96 14 -120 6z m-110 -335 c-7 -11
8 -14 18 -3 4 3 40 7 79 8 40 2 66 0 58 -3 -14 -5 64 -32 102 -35 9 -1 15 -4
12 -8 -4 -6 10 -15 29 -18 4 0 21 -16 38 -33 18 -18 26 -24 18 -13 -8 12 -2 9
18 -8 45 -41 87 -132 88 -189 0 -25 3 -41 7 -35 12 19 9 -170 -3 -219 -7 -25
-18 -48 -25 -51 -8 -3 -11 -10 -8 -15 4 -6 -4 -20 -17 -30 -13 -11 -18 -17
-11 -13 20 10 14 -11 -10 -31 -19 -15 -20 -16 -9 -1 19 24 8 21 -15 -5 -10
-12 -13 -18 -6 -14 17 10 15 0 -5 -24 -25 -30 -81 -63 -93 -55 -6 4 -9 1 -8
-6 4 -18 -98 -48 -162 -47 -54 1 -55 1 -15 9 35 6 33 7 -22 6 -35 -1 -59 2
-55 7 3 5 -2 7 -11 3 -9 -3 -19 -2 -23 4 -3 6 -11 8 -17 6 -7 -2 -18 2 -25 10
-8 7 -18 11 -23 8 -12 -8 -51 14 -44 25 3 5 0 12 -6 16 -8 4 -9 3 -5 -4 10
-17 -1 -15 -23 5 -11 9 -17 21 -14 26 3 6 1 7 -5 3 -14 -8 -67 60 -94 121 -17
39 -21 68 -22 160 -1 64 3 109 8 105 5 -3 6 9 3 27 -4 18 -3 30 2 27 5 -3 11
3 14 14 3 11 1 18 -4 14 -5 -3 -4 7 1 21 17 45 31 66 39 60 5 -2 8 3 7 13 0 9
4 16 11 15 6 -1 17 5 25 15 12 15 11 16 -4 3 -29 -22 -21 3 10 32 34 33 53 36
26 5 l-19 -23 22 19 c13 10 20 22 17 27 -6 10 53 42 65 34 5 -3 15 1 23 8 7 8
18 12 24 10 6 -2 17 3 24 12 14 17 25 21 15 5z"/>
    <path fill="#1B3A6B" d="M2325 2720 c-3 -4 -14 -6 -25 -3 -11 3 -20 0 -20 -6 0 -6 -8 -10 -17
-9 -37 3 -54 -2 -47 -14 5 -8 2 -9 -9 -5 -10 3 -17 2 -17 -4 0 -6 -4 -8 -9 -5
-5 3 -12 -1 -15 -10 -4 -9 -13 -14 -22 -10 -8 3 -12 2 -9 -4 3 -5 -3 -14 -14
-19 -26 -14 -34 -14 -25 2 5 8 2 7 -9 -2 -10 -8 -15 -16 -12 -19 5 -5 -76 -98
-85 -96 -3 1 -10 -6 -17 -15 -10 -13 -12 6 -13 97 l0 112 -185 0 c-102 0 -184
-3 -184 -7 1 -5 0 -37 -2 -73 l-3 -65 -6 75 c-4 41 -7 -256 -7 -660 0 -404 3
-721 7 -705 4 17 8 22 9 13 0 -10 7 -18 14 -18 8 0 7 -4 -3 -10 -10 -6 46 -10
167 -10 141 0 182 3 180 12 -1 7 4 12 11 10 10 -2 12 73 10 378 -2 209 0 380
5 380 4 0 4 12 1 26 -5 20 -4 25 6 19 9 -5 10 -2 5 15 -5 16 -4 20 4 15 8 -5
10 1 5 19 -5 20 -2 26 11 26 9 0 13 5 9 11 -4 7 4 20 17 31 13 11 18 17 11 13
-11 -6 -11 -3 0 14 7 12 18 21 24 21 6 0 24 16 39 36 17 22 33 33 42 30 8 -3
11 -2 8 4 -17 27 115 61 233 61 l82 0 1 27 1 27 8 -30 c4 -18 8 41 9 143 1
113 -2 171 -9 167 -5 -3 -10 1 -10 9 0 11 -15 15 -70 15 -38 0 -72 -4 -75 -9z
m-447 -27 c-21 -2 -55 -2 -75 0 -21 2 -4 4 37 4 41 0 58 -2 38 -4z m-291
-1090 c-1 -148 -2 -27 -2 267 0 294 1 415 2 268 2 -148 2 -388 0 -535z m370
-6 c-1 -67 -3 -9 -3 128 0 138 2 192 3 122 2 -71 2 -183 0 -250z"/>
    <path fill="#1B3A6B" d="M4350 2694 c0 -8 -4 -13 -9 -10 -5 4 -7 -3 -4 -14 3 -11 10 -20 15
-20 6 0 8 -7 5 -15 -4 -8 -2 -17 4 -20 5 -4 7 -11 4 -16 -4 -5 -1 -9 5 -9 7 0
9 -8 5 -21 -5 -14 -3 -19 3 -15 6 4 8 -2 4 -16 -3 -13 -1 -19 6 -14 14 9 55
-117 47 -146 -5 -19 -4 -20 5 -8 9 12 10 9 5 -13 -3 -17 -2 -26 4 -23 10 6 25
-23 16 -32 -3 -3 -5 1 -5 8 0 7 -2 11 -5 8 -10 -9 7 -38 18 -31 6 4 8 -2 5
-15 -4 -12 -2 -22 3 -22 6 0 9 -6 7 -12 -4 -23 13 -89 22 -83 4 3 6 -5 2 -17
-4 -15 -2 -19 7 -13 10 6 11 2 6 -15 -5 -16 -4 -20 5 -15 9 5 10 1 5 -15 -5
-14 -3 -20 3 -16 6 4 8 -2 5 -14 -3 -11 0 -20 6 -20 6 0 8 -7 4 -17 -5 -11 -3
-14 6 -8 10 6 11 2 6 -15 -5 -17 -4 -20 5 -15 10 6 11 1 6 -21 -4 -18 -3 -24
2 -16 6 9 15 -4 29 -45 37 -104 45 -134 39 -149 -4 -10 -2 -12 6 -8 8 5 9 -2
4 -22 -4 -19 -3 -24 2 -15 7 9 16 -8 31 -58 12 -39 21 -77 20 -84 -1 -7 -1
-21 0 -32 1 -17 3 -18 12 -5 9 12 10 12 5 -3 -7 -23 3 -69 14 -62 5 3 6 -5 2
-17 -3 -12 -1 -19 5 -15 6 4 10 -7 10 -25 0 -18 5 -34 11 -36 7 -2 10 -7 7
-12 -3 -4 0 -19 5 -32 10 -23 10 -23 6 0 -2 12 -1 20 4 17 4 -2 10 -18 13 -35
l7 -30 189 0 c181 0 190 1 196 20 4 11 11 17 17 14 6 -4 8 1 3 15 -8 26 72
284 85 276 11 -7 23 31 15 45 -9 15 5 51 17 44 6 -4 8 1 4 13 -8 24 2 55 15
47 5 -3 6 10 4 28 -4 24 -3 28 3 13 8 -18 9 -17 14 7 3 15 1 25 -4 22 -11 -7
-5 15 37 147 18 57 34 95 35 84 l1 -20 9 20 c12 28 12 37 -1 29 -7 -4 -9 0 -6
12 3 11 8 29 12 42 4 12 10 20 15 17 5 -3 11 1 13 7 4 10 8 9 16 -2 6 -8 11
-10 11 -5 1 6 6 -1 11 -14 5 -13 7 -33 3 -44 -4 -14 -3 -17 6 -12 9 5 10 1 5
-15 -5 -14 -3 -20 3 -16 6 4 8 -2 5 -14 -3 -12 0 -20 7 -20 7 0 9 -8 5 -21 -5
-16 -4 -19 6 -14 9 6 11 3 6 -10 -5 -11 -1 -22 10 -30 12 -9 17 -26 17 -55 -1
-28 2 -38 8 -29 6 10 8 7 7 -11 -1 -14 -1 -34 0 -45 1 -17 3 -18 12 -5 9 12
10 11 6 -7 -6 -29 13 -108 23 -93 4 6 17 -22 29 -62 12 -40 28 -90 36 -110 7
-21 9 -38 4 -38 -5 0 -9 -5 -9 -11 0 -5 5 -7 11 -3 8 4 9 0 4 -15 -3 -11 -2
-21 3 -21 5 0 9 -14 9 -32 0 -18 5 -34 11 -36 6 -2 8 -10 5 -19 -5 -12 -3 -14
7 -8 10 6 12 4 7 -9 -11 -27 27 -56 76 -58 l42 -1 -45 -7 c-27 -4 28 -8 140
-8 123 -1 180 2 170 8 -13 8 -12 10 5 11 11 1 24 1 29 0 5 -1 6 5 3 13 -4 9
-2 18 2 21 5 3 7 15 4 28 -4 18 -3 19 6 7 6 -9 11 -10 11 -3 0 6 3 20 6 30 5
15 4 16 -6 3 -10 -13 -11 -12 -6 3 3 10 6 21 6 23 0 3 5 2 12 -2 8 -5 9 -2 4
11 -9 26 29 149 44 140 5 -3 6 4 3 15 -4 13 1 26 13 35 11 8 14 15 7 15 -7 0
-10 7 -7 15 4 8 11 12 17 8 6 -4 8 0 4 10 -4 10 -2 17 4 17 6 0 9 7 5 15 -3 8
-2 15 3 15 5 0 11 9 14 20 3 13 1 18 -6 13 -7 -4 -8 0 -4 11 4 10 7 20 7 22 0
3 5 2 12 -2 8 -5 9 0 6 14 -4 13 -2 20 3 16 6 -3 7 6 4 23 -5 21 -4 24 4 13 6
-9 11 -10 11 -3 0 6 3 19 7 29 4 11 3 15 -4 11 -7 -5 -9 0 -6 14 5 16 8 18 15
7 7 -9 8 -7 5 10 -3 13 0 22 6 22 9 0 9 2 1 8 -13 8 90 340 111 357 7 6 18 25
24 44 14 42 14 50 0 31 -9 -12 -10 -12 -5 3 3 10 6 24 6 30 0 7 4 6 10 -3 8
-13 10 -12 11 5 7 80 8 87 19 80 6 -3 10 -2 10 4 0 5 -4 11 -9 13 -5 2 4 44
20 93 16 50 29 96 29 103 0 9 -39 12 -164 12 l-164 0 -27 -80 c-15 -44 -30
-78 -35 -75 -8 5 -31 -70 -28 -95 0 -8 0 -24 -1 -35 -1 -17 -3 -18 -11 -5 -6
9 -10 10 -10 3 0 -6 -3 -20 -6 -30 -5 -15 -4 -15 5 -3 19 27 13 -7 -25 -126
-21 -70 -39 -112 -46 -108 -6 4 -8 -1 -4 -13 8 -25 -3 -55 -17 -46 -6 4 -8 -3
-3 -21 4 -18 3 -25 -4 -21 -10 6 -15 -13 -12 -48 1 -11 -2 -15 -9 -11 -8 4 -9
0 -4 -15 4 -13 2 -21 -5 -21 -7 0 -9 -8 -5 -21 5 -16 4 -19 -5 -14 -9 5 -10 1
-5 -15 5 -16 4 -20 -4 -15 -8 5 -10 -1 -5 -21 5 -18 3 -25 -4 -20 -6 4 -8 -2
-4 -16 3 -15 2 -19 -7 -14 -9 6 -10 0 -6 -21 5 -20 4 -24 -3 -14 -8 11 -11 9
-14 -10 -4 -29 -21 -32 -26 -4 -2 11 -11 28 -19 37 -9 10 -12 25 -8 39 5 16 4
19 -6 14 -9 -6 -11 -2 -7 13 4 14 2 20 -5 15 -6 -4 -8 2 -5 15 4 12 0 26 -9
33 -8 8 -12 21 -9 35 4 13 1 24 -7 27 -16 6 -41 102 -31 118 5 8 3 9 -6 4 -10
-6 -11 -1 -6 21 5 23 4 26 -4 14 -9 -12 -11 -10 -7 12 2 15 0 25 -5 22 -5 -3
-6 7 -3 23 5 23 4 25 -5 13 -10 -13 -11 -12 -6 3 8 25 -4 68 -16 61 -6 -4 -8
2 -6 12 2 11 -1 24 -8 29 -6 6 -21 44 -34 85 -12 41 -31 103 -42 137 -11 35
-17 72 -13 83 4 14 2 20 -7 18 -9 -2 -12 7 -11 31 1 24 -1 30 -8 20 -8 -13
-13 -6 -10 14 0 4 -79 6 -177 5 -124 -1 -158 -3 -112 -8 l65 -7 -57 -1 c-43
-2 -58 -6 -58 -17 0 -24 -22 -65 -33 -58 -5 3 -6 -3 -2 -16 8 -26 -3 -64 -16
-55 -6 3 -7 -5 -4 -23 5 -19 4 -24 -3 -15 -7 11 -11 8 -16 -13 -4 -14 -4 -30
-1 -35 4 -6 2 -10 -3 -10 -6 0 -8 -10 -4 -22 4 -15 2 -19 -7 -13 -10 5 -11 2
-7 -13 10 -29 -23 -139 -35 -121 -6 9 -7 4 -3 -15 5 -22 4 -27 -6 -21 -10 6
-12 3 -8 -13 4 -12 3 -20 -1 -18 -4 3 -7 -10 -7 -27 -1 -18 -6 -52 -13 -76
-10 -34 -15 -41 -23 -30 -7 10 -8 8 -3 -8 8 -30 -25 -138 -38 -121 -5 8 -6 5
-2 -9 8 -29 -3 -65 -17 -57 -8 5 -9 1 -5 -10 4 -10 4 -29 1 -43 -5 -19 -9 -22
-16 -11 -6 9 -7 6 -3 -9 8 -28 -3 -66 -16 -58 -5 4 -9 -1 -9 -9 0 -9 -4 -16
-10 -16 -5 0 -10 9 -10 21 0 11 -4 18 -9 14 -5 -3 -17 21 -26 52 -9 32 -29 99
-44 148 -37 117 -44 148 -33 141 5 -3 7 6 4 20 -3 16 -7 21 -12 14 -10 -16
-22 33 -13 56 5 13 3 15 -7 9 -10 -6 -12 -4 -7 9 4 10 4 29 1 43 -5 19 -9 22
-16 11 -7 -9 -8 -6 -4 12 3 14 -1 31 -8 40 -14 15 -97 262 -114 337 -6 24 -6
40 -1 37 5 -3 9 0 9 5 0 7 -61 11 -185 11 -161 0 -185 -2 -185 -16z m1708
-1431 c-15 -2 -42 -2 -60 0 -18 2 -6 4 27 4 33 0 48 -2 33 -4z"/>
    <path fill="#1B3A6B" d="M6373 2703 c48 -2 125 -2 170 0 45 1 6 3 -88 3 -93 0 -130 -2 -82 -3z"/>
    <path fill="#1B3A6B" d="M3124 1795 c0 -154 2 -216 3 -137 2 79 2 205 0 280 -1 75 -3 11 -3
-143z"/>
    <path fill="#1B3A6B" d="M2777 1253 c18 -2 50 -2 70 0 21 2 7 4 -32 4 -38 0 -55 -2 -38 -4z"/>
    <path fill="#1B3A6B" d="M4047 1253 c18 -2 50 -2 70 0 21 2 7 4 -32 4 -38 0 -55 -2 -38 -4z"/>
    <path fill="#E07830" d="M5940 10847 c-45 -8 -51 -11 -30 -17 l25 -6 -25 -7 c-14 -4 -34 -7
-45 -7 -17 0 -18 2 -5 11 12 9 12 10 -3 5 -11 -3 -30 -9 -44 -12 -18 -5 -21
-9 -12 -15 8 -5 0 -7 -20 -7 -21 1 -39 -5 -46 -15 -7 -9 -15 -14 -18 -11 -9 9
-57 -27 -57 -42 0 -8 -5 -14 -11 -14 -5 0 -7 5 -3 11 11 18 -26 -5 -66 -41
-19 -17 -28 -28 -20 -24 12 6 13 5 2 -7 -7 -8 -18 -14 -25 -14 -7 0 -12 -7
-12 -15 0 -8 -7 -15 -15 -15 -9 0 -14 -8 -12 -18 2 -13 -2 -17 -15 -15 -13 2
-17 -2 -15 -16 3 -13 -1 -17 -12 -13 -8 3 -20 -2 -28 -11 -12 -15 -11 -16 5
-3 25 20 21 5 -10 -40 -16 -21 -33 -37 -40 -34 -6 2 -17 -4 -25 -13 -12 -15
-11 -16 5 -3 18 14 22 5 8 -18 -5 -7 -13 -11 -19 -7 -6 3 -14 1 -18 -5 -4 -8
-3 -9 4 -5 7 4 12 1 12 -9 0 -12 -5 -15 -16 -11 -12 4 -15 2 -10 -9 3 -8 -6
-32 -20 -53 -21 -30 -25 -32 -20 -12 6 21 5 22 -4 7 -7 -10 -9 -25 -6 -33 3
-8 -4 -20 -18 -29 -23 -16 -58 -73 -35 -59 7 4 10 1 7 -7 -3 -8 -10 -13 -16
-12 -5 1 -8 -6 -5 -16 3 -10 0 -22 -6 -25 -7 -5 -9 -1 -5 11 6 15 4 15 -9 -2
-10 -13 -12 -22 -5 -26 6 -4 7 -12 4 -18 -4 -6 -12 -8 -18 -5 -7 5 -8 2 -4 -5
5 -7 -6 -44 -23 -84 -17 -40 -47 -112 -66 -162 -21 -54 -33 -76 -30 -55 l5 35
-15 -39 c-8 -22 -12 -43 -7 -48 5 -5 35 -12 68 -17 41 -6 49 -9 25 -10 -42 -1
-38 -6 12 -14 22 -3 35 -2 32 4 -4 5 1 9 10 9 8 0 18 -7 22 -16 4 -11 8 -12
13 -4 4 7 13 9 19 6 6 -4 9 -11 6 -16 -3 -4 2 -10 10 -14 8 -3 15 -1 15 5 0 6
6 9 13 6 6 -2 11 -10 9 -17 -2 -8 3 -10 13 -7 20 8 45 -2 45 -19 0 -15 37 -39
60 -39 8 0 15 -5 15 -12 0 -7 6 -18 13 -25 11 -11 12 -9 6 7 -6 18 -5 18 19
-4 15 -13 24 -28 21 -33 -3 -5 0 -7 8 -6 7 2 12 -4 10 -12 -2 -8 0 -12 4 -8 8
9 34 -10 34 -24 0 -5 -6 -6 -12 -2 -9 5 -8 2 1 -10 10 -12 16 -14 22 -5 5 8
10 5 18 -9 14 -27 14 -35 -1 -26 -7 4 -8 3 -4 -5 4 -6 11 -9 15 -7 8 6 51 -47
51 -63 0 -5 9 -28 20 -52 22 -49 25 -74 9 -63 -8 4 -9 -1 -3 -17 4 -13 11 -42
15 -64 l6 -40 3 50 c2 40 5 30 12 -45 10 -112 3 -194 -23 -270 -10 -30 -17
-41 -14 -25 l4 30 -13 -30 c-8 -16 -12 -35 -9 -42 3 -6 0 -20 -7 -30 -9 -16
-10 -15 -5 7 l6 25 -15 -24 c-7 -14 -11 -32 -8 -40 4 -10 1 -12 -8 -6 -10 6
-12 4 -7 -9 4 -9 3 -14 -2 -11 -5 3 -12 1 -16 -5 -3 -5 -1 -10 6 -10 8 0 8 -6
-2 -21 -8 -11 -18 -20 -24 -20 -13 0 -55 -40 -55 -52 0 -5 9 1 20 14 10 13 19
19 20 13 0 -16 -45 -55 -55 -47 -4 5 -5 3 -2 -3 8 -14 -32 -52 -53 -51 -24 1
-70 -33 -70 -52 0 -12 -2 -13 -8 -4 -6 10 -12 10 -28 -2 -19 -15 -19 -15 1 -9
l20 6 -20 -14 c-11 -9 -31 -19 -45 -23 -24 -7 -24 -7 -5 9 19 15 18 15 -15 2
-61 -23 -66 -26 -37 -21 15 3 27 3 27 1 0 -10 -76 -28 -164 -40 l-89 -11 2
-100 c1 -55 4 -101 6 -103 8 -8 166 -12 615 -16 349 -3 479 -1 489 7 11 9 15
9 18 0 3 -7 9 -13 14 -13 6 0 7 5 4 10 -3 6 1 10 10 10 9 0 13 -4 10 -10 -3
-5 1 -10 9 -10 9 0 16 5 16 10 0 6 9 10 19 10 11 0 23 -4 26 -10 3 -5 11 -10
16 -10 6 0 7 4 4 10 -3 6 4 9 19 8 13 -1 22 -6 20 -10 -3 -4 15 -8 40 -8 25 0
46 -3 46 -7 0 -5 1 -98 3 -208 l2 -200 -255 -5 -255 -6 253 -2 c138 -1 252 -6
252 -10 0 -4 -310 -8 -690 -7 l-690 0 0 -106 0 -106 103 -7 c92 -6 226 -32
187 -36 -8 -1 5 -8 30 -16 54 -17 53 -16 45 -4 -8 13 25 13 45 0 12 -8 12 -10
-5 -11 l-20 0 20 -9 c28 -12 37 -12 30 0 -3 6 1 10 9 10 18 0 30 -17 16 -22
-6 -2 4 -9 22 -15 30 -11 31 -11 14 2 -18 14 -18 15 -2 15 28 0 61 -21 47 -30
-9 -5 -8 -9 4 -13 9 -4 13 -3 10 3 -10 16 13 12 58 -11 66 -34 128 -79 122
-90 -3 -5 0 -6 8 -3 8 3 18 1 22 -5 3 -6 1 -11 -5 -11 -6 0 2 -11 18 -25 17
-14 36 -25 44 -25 7 0 18 -10 23 -22 6 -13 17 -22 24 -20 7 1 10 -2 6 -8 -9
-14 14 -42 28 -33 6 3 7 1 3 -5 -4 -7 -2 -12 3 -12 6 0 10 -3 9 -7 -3 -9 41
-83 48 -83 3 0 2 5 -2 12 -4 7 -3 8 4 4 6 -4 8 -14 5 -23 -4 -11 -3 -14 6 -9
8 5 12 3 10 -5 -3 -28 1 -38 16 -33 10 4 15 0 15 -11 0 -9 -4 -13 -10 -10 -6
3 -7 -1 -4 -9 3 -9 10 -13 15 -11 12 8 36 -53 53 -133 11 -51 14 -128 11 -317
-2 -137 -5 -268 -9 -290 -3 -22 -8 -60 -11 -85 -21 -160 -48 -310 -75 -405
-50 -180 -61 -209 -72 -194 -7 10 -8 6 -5 -13 2 -17 0 -25 -6 -21 -6 4 -8 0
-4 -10 4 -10 2 -17 -4 -17 -6 0 -8 -8 -5 -17 4 -10 4 -14 0 -10 -4 4 -16 -12
-26 -35 -10 -22 -16 -43 -13 -46 3 -3 5 1 5 8 0 7 2 11 5 8 9 -8 -6 -38 -16
-32 -5 3 -6 -2 -3 -10 8 -22 -33 -109 -47 -100 -8 5 -9 3 -4 -5 10 -18 -35
-113 -51 -107 -8 3 -11 -1 -8 -9 7 -17 -34 -87 -46 -80 -5 3 -12 0 -16 -6 -5
-8 -3 -9 6 -4 8 5 11 3 8 -6 -3 -8 -10 -14 -16 -14 -5 0 -14 -4 -19 -9 -5 -5
-3 -6 5 -2 14 8 16 -3 3 -23 -5 -7 -13 -11 -19 -7 -5 3 -9 -2 -8 -12 0 -9 -5
-16 -11 -15 -7 2 -13 -6 -13 -18 0 -11 -4 -17 -10 -14 -5 3 -10 -3 -10 -13 0
-11 -8 -26 -17 -33 -17 -13 -17 -13 -3 6 14 18 14 19 -2 7 -9 -8 -15 -19 -12
-27 5 -13 -11 -29 -31 -30 -5 -1 -9 -7 -7 -13 1 -7 -12 -27 -30 -45 -17 -18
-25 -23 -18 -12 8 11 -9 -2 -38 -30 -29 -27 -52 -51 -52 -54 0 -3 19 13 41 34
23 22 40 34 38 28 -6 -18 -201 -213 -213 -213 -5 0 3 15 20 33 l29 32 -32 -29
c-30 -27 -33 -44 -12 -72 5 -6 6 -13 3 -16 -3 -3 2 -5 12 -4 9 0 19 -5 22 -13
3 -10 0 -11 -9 -5 -12 7 -12 5 0 -9 15 -18 26 -23 16 -7 -8 12 5 13 24 1 7 -5
11 -13 7 -19 -3 -6 -1 -14 5 -18 8 -4 9 -3 5 4 -8 14 3 15 23 3 7 -5 11 -13 7
-19 -3 -6 -1 -14 5 -18 8 -4 9 -3 5 4 -4 7 -3 12 2 12 14 0 33 -26 25 -34 -4
-4 1 -4 11 0 10 4 21 3 25 -2 3 -5 19 -17 34 -27 15 -10 25 -22 22 -27 -3 -4
4 -6 15 -3 14 4 20 0 20 -10 0 -9 5 -19 12 -23 7 -5 8 -3 3 6 -5 8 -3 11 6 8
8 -3 13 -10 12 -16 -2 -7 4 -9 14 -5 10 4 14 2 10 -4 -4 -5 5 -15 19 -22 15
-6 23 -7 19 -1 -9 14 10 12 53 -6 143 -61 310 -68 595 -23 77 12 102 6 35 -9
-25 -6 -33 -10 -18 -10 33 -1 112 25 85 28 l-20 1 20 9 c11 5 31 9 45 9 23 0
24 -1 5 -10 -16 -7 -14 -8 10 -3 17 3 32 10 33 15 2 5 8 7 12 4 5 -3 21 -2 37
1 25 7 26 8 8 16 -17 7 -16 8 4 4 34 -7 86 5 70 15 -8 5 -2 7 16 7 40 -1 75
11 72 24 -1 6 4 13 12 16 9 3 11 0 6 -8 -6 -10 -4 -12 9 -7 10 4 23 7 29 7 7
0 6 5 -3 11 -13 9 -12 10 2 5 24 -7 133 35 117 45 -8 5 1 13 27 24 23 9 40 12
42 6 2 -5 10 -7 18 -4 12 4 12 8 4 13 -16 10 196 121 216 113 9 -3 12 0 9 9
-4 9 12 23 45 41 56 31 73 35 44 11 -18 -15 -17 -15 6 -1 14 9 24 21 22 27 -2
8 3 10 12 7 9 -4 15 -1 13 6 -1 7 6 11 15 11 10 -1 16 3 15 10 -1 6 6 11 15
11 10 0 25 10 34 23 8 12 19 20 23 18 12 -8 52 24 46 35 -4 5 3 9 14 9 11 0
23 4 26 10 3 5 0 8 -7 7 -7 -2 -3 1 10 7 12 5 22 16 22 23 0 7 5 13 11 13 5 0
7 -6 3 -12 -5 -9 -3 -9 9 1 9 7 15 17 12 21 -3 4 2 13 10 20 11 9 15 9 15 1 0
-7 4 -10 10 -6 5 3 7 12 3 20 -5 14 8 20 32 15 5 -1 7 2 2 6 -8 8 81 104 97
104 6 0 -8 -19 -29 -42 l-40 -43 42 39 c23 21 41 42 40 45 -3 9 39 61 49 61 4
0 -3 -11 -16 -25 -13 -14 -21 -25 -19 -25 3 0 31 28 64 62 33 35 45 50 28 33
-49 -43 -40 -16 9 30 23 22 36 31 28 20 -15 -20 -14 -20 8 -1 23 20 30 32 12
21 -15 -9 -12 3 7 24 9 11 20 18 24 16 4 -3 13 3 20 13 13 15 12 16 -3 3 -33
-25 -17 4 29 54 l45 50 -32 -45 -32 -45 35 40 c20 21 33 43 30 48 -6 10 17 38
26 33 4 -3 13 5 21 17 12 21 12 21 -6 7 -18 -14 -18 -14 -4 5 8 11 31 36 50
56 19 19 44 51 54 70 23 42 8 28 -28 -26 -14 -22 -26 -36 -26 -31 0 15 132
227 138 222 6 -6 31 24 32 38 0 6 -7 1 -15 -10 -13 -17 -14 -17 -15 -2 0 17
16 33 34 33 5 0 11 7 13 15 4 13 3 13 -7 0 -9 -12 -10 -10 -4 10 10 36 56 120
49 90 l-6 -25 15 25 c17 28 20 44 7 36 -5 -4 -7 3 -4 15 4 16 8 17 14 7 9 -13
10 -11 13 25 1 6 5 15 11 19 5 4 10 24 10 45 0 24 4 37 12 36 12 -3 39 64 30
73 -3 3 -8 -9 -12 -26 -4 -17 -9 -29 -11 -27 -3 3 9 50 25 107 32 107 81 313
81 341 0 9 7 19 15 23 9 3 15 17 14 33 l-1 28 -9 -25 c-7 -20 -8 -17 -4 15 18
161 26 339 23 508 -2 127 1 197 7 197 6 0 5 4 -2 8 -6 4 -14 36 -17 72 -4 36
-9 88 -12 115 -4 36 -2 46 5 35 9 -12 11 -11 11 8 0 13 -4 21 -9 18 -5 -3 -11
3 -14 14 -3 11 -1 20 4 20 5 0 9 10 9 23 0 16 -3 18 -9 8 -12 -18 -18 -5 -25
59 -6 41 -4 51 4 40 9 -13 10 -12 7 5 -2 11 -8 19 -14 18 -10 -2 -28 96 -23
122 2 6 1 24 0 40 l-2 30 -7 -30 c-6 -25 -10 -16 -25 60 -10 50 -25 109 -33
133 -10 30 -11 47 -4 56 6 8 7 23 2 42 l-9 29 -2 -30 -2 -30 -9 30 c-5 17 -7
45 -4 62 5 28 3 32 -11 26 -14 -5 -15 -3 -7 12 14 25 -4 95 -31 118 -13 12
-17 20 -10 23 7 3 9 14 7 25 -5 16 -8 18 -15 7 -6 -9 -8 -3 -6 17 3 38 -21
122 -31 107 -9 -16 -45 83 -37 104 3 8 2 12 -4 9 -6 -3 -13 2 -16 12 -3 10
-12 32 -19 48 -22 51 -27 75 -16 75 6 0 8 7 4 16 -4 11 -8 12 -13 4 -5 -8 -9
-4 -13 9 -3 12 -1 21 5 21 5 0 6 5 3 10 -4 6 -10 8 -15 5 -4 -3 -10 2 -13 9
-3 8 -1 17 6 20 7 2 4 5 -5 5 -10 1 -18 9 -18 19 0 14 2 15 10 2 7 -11 10 -12
10 -2 0 8 -9 16 -21 19 -16 5 -19 11 -14 30 3 14 2 22 -4 19 -5 -3 -11 1 -15
9 -3 8 -1 15 5 15 6 0 7 5 4 10 -4 6 -10 8 -15 5 -4 -3 -10 2 -14 10 -3 8 -1
15 4 15 5 0 7 7 3 16 -4 11 -8 12 -13 4 -5 -8 -9 -7 -13 4 -4 9 -2 16 3 16 5
0 7 7 3 16 -5 13 -8 13 -15 2 -7 -9 -8 -3 -4 17 5 21 4 26 -3 16 -7 -11 -13
-6 -25 24 -19 44 -19 48 -6 40 12 -7 -8 41 -28 70 -12 17 -13 17 -8 2 4 -11 2
-16 -5 -11 -6 3 -9 14 -6 24 2 10 1 24 -4 31 -7 12 -9 11 -9 -1 0 -8 -7 -2
-15 14 -17 32 -20 49 -5 26 5 -8 10 -10 10 -5 0 15 -16 37 -26 35 -5 -1 -10 4
-13 11 -2 7 1 9 9 4 9 -6 9 -2 -1 16 -8 16 -14 20 -17 10 -2 -7 -17 10 -33 40
-31 56 -36 75 -17 63 7 -4 8 -3 4 5 -4 6 -11 9 -16 6 -9 -6 -40 38 -40 57 0 9
3 9 10 -2 5 -8 10 -10 10 -5 -1 6 -7 19 -15 29 -10 13 -15 15 -15 6 0 -9 -5
-7 -15 6 -17 23 -19 38 -3 28 7 -4 8 -3 4 5 -4 6 -11 9 -16 6 -5 -3 -16 8 -25
25 -9 17 -11 30 -5 30 6 0 -2 18 -16 40 -28 43 -37 50 -27 23 4 -11 3 -14 -6
-9 -6 4 -11 15 -10 24 2 29 -1 38 -10 24 -7 -11 -9 -11 -14 2 -4 9 -2 16 4 16
6 0 1 14 -11 30 -12 17 -25 28 -30 25 -5 -3 -11 -1 -15 5 -3 5 -1 10 6 10 7 0
9 3 5 8 -4 4 -13 7 -19 7 -7 0 -12 8 -12 17 0 10 -17 32 -38 49 -36 30 -55 65
-19 38 15 -13 16 -12 3 4 -7 9 -19 17 -25 17 -6 0 -20 12 -30 27 -11 14 -14
23 -7 18 20 -11 -3 28 -26 46 -16 12 -16 11 1 -9 11 -12 15 -22 10 -22 -13 1
-47 50 -34 50 6 0 -1 12 -15 27 -14 15 -25 31 -25 35 0 5 -5 8 -11 8 -5 0 -7
-5 -3 -12 4 -7 3 -8 -5 -4 -6 4 -9 12 -5 17 8 13 -25 50 -38 43 -4 -3 -7 0 -6
7 2 7 -4 13 -12 14 -8 0 -15 7 -15 15 0 8 -6 15 -12 15 -7 0 -12 4 -10 9 1 5
-8 13 -21 17 -14 5 -20 13 -16 20 4 7 3 9 -3 6 -6 -4 -21 5 -33 18 -13 14 -20
25 -15 25 5 0 -4 14 -20 30 -16 17 -34 30 -39 30 -6 0 -4 -5 4 -10 8 -5 11
-10 5 -10 -12 1 -75 57 -75 67 0 4 14 -6 30 -22 17 -16 30 -25 30 -21 0 12
-53 51 -66 48 -6 -1 -18 6 -25 15 -13 17 -13 17 6 3 19 -14 19 -14 6 3 -17 22
-78 66 -67 49 4 -7 2 -12 -3 -12 -6 0 -11 6 -11 13 0 8 -10 22 -22 33 -12 10
-18 13 -13 5 5 -9 3 -12 -6 -9 -8 3 -14 11 -14 18 0 7 -9 18 -20 24 -11 6 -23
16 -27 21 -5 6 -8 4 -8 -5 0 -13 -1 -13 -10 0 -9 15 -13 16 -45 19 -8 0 -15 6
-15 12 0 5 5 7 10 4 6 -3 10 -4 10 -2 0 11 -74 48 -87 43 -8 -3 -11 -2 -8 3 3
5 1 12 -5 16 -5 3 -10 2 -10 -4 0 -6 -7 -8 -16 -4 -11 4 -12 8 -4 13 8 5 7 9
-5 14 -23 8 -27 8 -20 -4 3 -5 -1 -10 -10 -10 -11 0 -15 5 -12 15 4 8 2 17 -3
20 -6 4 -10 1 -10 -5 0 -7 -6 -10 -12 -7 -7 2 -12 9 -11 15 1 6 -39 24 -90 40
-206 67 -381 87 -527 59z m183 -4 c-23 -2 -64 -2 -90 0 -26 2 -7 3 42 3 50 0
71 -1 48 -3z m274 -3055 c-1 -46 -3 -9 -3 82 0 91 2 128 3 83 2 -46 2 -120 0
-165z"/>
    <path fill="#E07830" d="M4960 9322 c-67 -7 -93 -14 -81 -22 10 -6 10 -9 1 -15 -7 -4 -15 -3
-19 3 -4 7 -12 8 -21 2 -13 -9 -13 -10 0 -10 12 -1 11 -3 -3 -11 -9 -5 -21 -8
-26 -5 -4 3 -17 -4 -27 -16 -11 -12 -13 -18 -5 -13 9 5 12 3 9 -6 -3 -8 -11
-13 -17 -11 -6 1 -11 -8 -11 -20 0 -17 -3 -19 -9 -9 -11 17 -46 -71 -38 -94 4
-8 2 -15 -3 -15 -12 0 -11 -66 1 -100 7 -21 8 -20 4 10 -4 29 -3 32 6 17 6
-11 9 -32 7 -47 -3 -17 0 -28 6 -27 6 1 11 -8 11 -20 0 -12 5 -26 9 -30 5 -4
6 -2 2 5 -4 6 -3 12 2 12 15 0 22 -28 9 -34 -7 -4 -2 -4 11 -2 16 3 22 -1 22
-15 0 -13 5 -17 17 -12 12 5 15 2 11 -9 -4 -10 2 -19 20 -27 25 -11 26 -10 8
4 -11 8 -15 15 -8 15 6 0 20 -10 32 -22 11 -12 20 -18 20 -12 0 10 143 10 159
0 9 -6 61 9 61 18 0 2 -10 2 -22 -1 -21 -4 -21 -3 -5 7 10 6 25 9 33 6 8 -3
14 0 14 7 0 7 9 20 20 30 11 9 20 13 20 7 0 -5 -8 -14 -17 -19 -10 -6 -13 -11
-7 -11 10 0 34 24 64 64 11 15 12 18 2 12 -10 -6 -13 -3 -10 10 2 11 9 18 16
17 12 -3 33 58 31 92 -1 17 -2 16 -9 -5 -6 -20 -8 -14 -9 26 -1 28 -8 70 -16
93 -10 28 -11 41 -3 41 6 0 8 3 4 8 -4 4 -13 7 -19 7 -5 0 -12 6 -15 14 -3 9
0 11 9 6 8 -5 1 6 -16 24 -16 17 -34 30 -40 27 -6 -2 -22 2 -36 10 -13 7 -20
13 -16 14 5 0 17 -5 28 -10 10 -6 19 -8 19 -6 0 12 -64 38 -68 28 -1 -5 -13
-7 -24 -4 -21 5 -21 6 -2 12 14 5 9 8 -21 11 -22 2 -51 3 -65 1z"/>
    <path fill="#E07830" d="M4958 8773 c18 -2 45 -2 60 0 15 2 0 4 -33 4 -33 0 -45 -2 -27 -4z"/>
    <path fill="#E07830" d="M5103 7703 c59 -2 155 -2 215 0 59 1 10 3 -108 3 -118 0 -167 -2
-107 -3z"/>
    <path fill="#E07830" d="M5563 7703 c37 -2 96 -2 130 0 34 2 4 3 -68 3 -71 0 -99 -1 -62 -3z"/>
    <path fill="#E07830" d="M8573 7085 c0 -38 2 -53 4 -32 2 20 2 52 0 70 -2 17 -4 1 -4 -38z"/>
    <path fill="#E07830" d="M8574 6790 c0 -80 2 -112 3 -72 2 39 2 105 0 145 -1 39 -3 7 -3 -73z"/>
    <path fill="#E07830" d="M6064 6485 c0 -93 2 -133 3 -88 2 45 2 122 0 170 -1 48 -3 12 -3 -82z"/>
    <path fill="#E07830" d="M5686 4105 c17 -7 44 -16 60 -20 25 -4 24 -3 -6 8 -19 8 -46 17 -60
20 -19 5 -17 3 6 -8z"/>
  </g>
</svg>